<?xml version="1.0" encoding="utf-8"?>
<!-- Generator: Adobe Illustrator 23.0.3, SVG Export Plug-In . SVG Version: 6.00 Build 0)  -->
<svg version="1.1" xmlns="http://www.w3.org/2000/svg" xmlns:xlink="http://www.w3.org/1999/xlink" x="0px" y="0px"
	 viewBox="0 0 90 90" style="enable-background:new 0 0 90 90;" xml:space="preserve">
<g id="Layer_2">
</g>
<g id="Layer_1">
	<path d="M45,0C20.1,0,0,20.1,0,45s20.1,45,45,45s45-20.1,45-45S69.9,0,45,0z M38.7,21.3c0-3.4,2.7-6.1,6.1-6.1
		c1.8,0,3.4,0.7,4.5,1.9c1.2,1.2,1.9,2.8,1.9,4.5v26.8c0,3.5-2.9,6.4-6.4,6.4c-3.4,0-6.1-2.8-6.1-6.1V21.3z M52.6,68
		c-0.4,3.6-3.3,6.5-6.8,6.8c-4.9,0.5-9-3.6-8.5-8.5c0.4-3.5,3.3-6.5,6.8-6.8C49.1,59,53.2,63.1,52.6,68z"/>
</g>
</svg>
