<?xml version="1.0" encoding="utf-8"?>
<!-- Generator: Adobe Illustrator 23.0.3, SVG Export Plug-In . SVG Version: 6.00 Build 0)  -->
<svg version="1.1" id="Layer_1" xmlns="http://www.w3.org/2000/svg" xmlns:xlink="http://www.w3.org/1999/xlink" x="0px" y="0px"
	 viewBox="0 0 19.6 19.6" style="enable-background:new 0 0 19.6 19.6;" xml:space="preserve">
<style type="text/css">
	.st0{fill-rule:evenodd;clip-rule:evenodd;fill:#6A737D;}
</style>
<title>ic_search</title>
<desc>Created with Sketch.</desc>
<g>
	<g>
		<path class="st0" d="M14.3,12.9l5,5c0.4,0.4,0.4,1,0,1.4c-0.4,0.4-1,0.4-1.4,0l-5-5c-3.1,2.4-7.7,2.2-10.6-0.7
			c-3.1-3.1-3.1-8.2,0-11.3s8.2-3.1,11.3,0C16.5,5.2,16.8,9.8,14.3,12.9L14.3,12.9z M12.2,12.2c2.3-2.3,2.3-6.1,0-8.5
			s-6.1-2.3-8.5,0s-2.3,6.1,0,8.5S9.9,14.6,12.2,12.2z"/>
	</g>
</g>
</svg>
