<?xml version="1.0" encoding="utf-8"?>
<!-- Generator: Adobe Illustrator 23.0.3, SVG Export Plug-In . SVG Version: 6.00 Build 0)  -->
<svg version="1.1" id="Layer_1" xmlns="http://www.w3.org/2000/svg" xmlns:xlink="http://www.w3.org/1999/xlink" x="0px" y="0px"
	 viewBox="0 0 30 32.8" style="enable-background:new 0 0 30 32.8;" xml:space="preserve">
<style type="text/css">
	.st0{fill-rule:evenodd;clip-rule:evenodd;fill:#FFFFFF;}
</style>
<g transform="matrix(-1,0,0,1,362.012,2)">
	<path class="st0" d="M353.5,22h-18.9c-0.7,0-1.3-0.3-1.8-0.7c-0.5-0.5-0.7-1.1-0.7-1.8c0-5.7,0-19,0-19c0-0.7,0.3-1.3,0.7-1.8
		c0.5-0.5,1.1-0.7,1.8-0.7s1.3,0.3,1.8,0.7c0.5,0.5,0.7,1.1,0.7,1.8V17h16.4l-4.5-4.5l0,0c-0.5-0.5-0.7-1.1-0.7-1.7
		c0-0.7,0.3-1.3,0.7-1.8c0.5-0.5,1.1-0.7,1.8-0.7c0.7,0,1.3,0.3,1.7,0.7l0,0l8.8,8.8c0.5,0.5,0.7,1.1,0.7,1.8s-0.3,1.3-0.7,1.8
		c-0.9,0.9-1.8,1.8-1.8,1.8l-7,7l0,0c-0.5,0.5-1.1,0.7-1.7,0.7c-0.7,0-1.3-0.3-1.8-0.7c-0.5-0.5-0.7-1.1-0.7-1.8
		c0-0.7,0.3-1.3,0.7-1.7l0,0L353.5,22z"/>
</g>
</svg>
