<?xml version="1.0" encoding="utf-8"?>
<!-- Generator: Adobe Illustrator 23.0.3, SVG Export Plug-In . SVG Version: 6.00 Build 0)  -->
<svg version="1.1" id="Layer_1" xmlns="http://www.w3.org/2000/svg" xmlns:xlink="http://www.w3.org/1999/xlink" x="0px" y="0px"
	 viewBox="0 0 26.2 15.8" style="enable-background:new 0 0 26.2 15.8;" xml:space="preserve">
<title>campur</title>
<path d="M0.1,6.4L0,7.4c3.8,7.5,13,10.6,20.6,6.8c2.2-1.1,4.1-2.7,5.5-4.7l0.1-1c-3.8-7.5-13-10.6-20.6-6.8C3.4,2.8,1.5,4.4,0.1,6.4
	z M12.9,13.8c-3.3-0.3-5.7-3.1-5.4-6.4c0.3-3.3,3.1-5.7,6.4-5.4c3.3,0.3,5.7,3.1,5.4,6.4C19,11.6,16.2,14.1,12.9,13.8
	C12.9,13.8,12.9,13.8,12.9,13.8L12.9,13.8z"/>
<circle cx="13.3" cy="7.9" r="3"/>
</svg>
